HIERARCHY
ROOT root
{
	OFFSET	0	13.1	24.9
	CHANNELS 6  Xposition Yposition Zposition Xrotation Yrotation Zrotation
	JOINT spine_1
	{
		OFFSET	0	9.99999	0
		CHANNELS 3  Xrotation Yrotation Zrotation
		JOINT spine_2
		{
			OFFSET	0	112	-10
			CHANNELS 3  Xrotation Yrotation Zrotation
			JOINT spine_3
			{
				OFFSET	0	206.5	19.3
				CHANNELS 3  Xrotation Yrotation Zrotation
				JOINT spine_4
				{
					OFFSET	0	110.4	14.6
					CHANNELS 3  Xrotation Yrotation Zrotation
					JOINT neck_1
					{
						OFFSET	0	71.8	-50.3
						CHANNELS 3  Xrotation Yrotation Zrotation
						JOINT neck_2
						{
							OFFSET	0	86.2	-25.8
							CHANNELS 3  Xrotation Yrotation Zrotation
							JOINT head_ee
							{
								OFFSET	0	179.8	-8.7
								CHANNELS 3  Xrotation Yrotation Zrotation
								End Site
								{
									OFFSET	1	0	0
								}
							}
						}
					}
					JOINT left_clavicle
					{
						OFFSET	-43.2	22.4	-70.8
						CHANNELS 3  Xrotation Yrotation Zrotation
						JOINT left_shoulder
						{
							OFFSET	-93.9	-5.79999	48.7
							CHANNELS 3  Xrotation Yrotation Zrotation
							JOINT left_elbow
							{
								OFFSET	-291.4	-30.8	15.2
								CHANNELS 3  Xrotation Yrotation Zrotation
								JOINT left_lowarm_twist
								{
									OFFSET	-110.7	-3.89999	13.6
									CHANNELS 3  Xrotation Yrotation Zrotation
									JOINT left_hand
									{
										OFFSET	-110.7	-3.89999	13.6
										CHANNELS 3  Xrotation Yrotation Zrotation
										JOINT left_ee
										{
											OFFSET	-80.8	-5.10001	12.1
											CHANNELS 3  Xrotation Yrotation Zrotation
											End Site
											{
												OFFSET	1	0	0
											}
										}
									}
								}
							}
						}
					}
					JOINT right_clavicle
					{
						OFFSET	43.2	22.4	-70.8
						CHANNELS 3  Xrotation Yrotation Zrotation
						JOINT right_shoulder
						{
							OFFSET	93.9	-5.79999	48.7
							CHANNELS 3  Xrotation Yrotation Zrotation
							JOINT right_elbow
							{
								OFFSET	291.4	-30.8	15.2
								CHANNELS 3  Xrotation Yrotation Zrotation
								JOINT right_lowarm_twist
								{
									OFFSET	110.7	-3.89999	13.6
									CHANNELS 3  Xrotation Yrotation Zrotation
									JOINT right_hand
									{
										OFFSET	110.7	-3.89999	13.6
										CHANNELS 3  Xrotation Yrotation Zrotation
										JOINT right_ee
										{
											OFFSET	80.8	-5.10001	12.1
											CHANNELS 3  Xrotation Yrotation Zrotation
											End Site
											{
												OFFSET	1	0	0
											}
										}
									}
								}
							}
						}
					}
				}
			}
		}
	}
	JOINT left_hip
	{
		OFFSET	-82.8	-127.5	0.300001
		CHANNELS 3  Xrotation Yrotation Zrotation
		JOINT left_knee
		{
			OFFSET	-28.2	-396.7	2.2
			CHANNELS 3  Xrotation Yrotation Zrotation
			JOINT left_ankle
			{
				OFFSET	-11.7	-411.3	35.4
				CHANNELS 3  Xrotation Yrotation Zrotation
				JOINT left_toes
				{
					OFFSET	0	-60	-88.6
					CHANNELS 3  Xrotation Yrotation Zrotation
					JOINT left_foot_ee
					{
						OFFSET	-22.5	-16.5	-42.2
						CHANNELS 3  Xrotation Yrotation Zrotation
						End Site
						{
							OFFSET	1	0	0
						}
					}
				}
			}
		}
	}
	JOINT right_hip
	{
		OFFSET	82.8	-127.5	0.300001
		CHANNELS 3  Xrotation Yrotation Zrotation
		JOINT right_knee
		{
			OFFSET	28.2	-396.7	2.2
			CHANNELS 3  Xrotation Yrotation Zrotation
			JOINT right_ankle
			{
				OFFSET	11.7	-411.3	35.4
				CHANNELS 3  Xrotation Yrotation Zrotation
				JOINT right_toes
				{
					OFFSET	0	-60	-88.6
					CHANNELS 3  Xrotation Yrotation Zrotation
					JOINT right_foot_ee
					{
						OFFSET	22.5	-16.5	-42.2
						CHANNELS 3  Xrotation Yrotation Zrotation
						End Site
						{
							OFFSET	1	0	0
						}
					}
				}
			}
		}
	}
}
MOTION
Frames: 15
Frame Time: 0.02
956.924 760.205 -1440.57 12.9545 36.9714 6.30868 -3.22053 -0.446441 -2.95952 -3.21569 -0.2573 -2.9819 -3.19556 0.540473 -2.94381 -3.20765 0.0689868 -2.99218 -2.25797 4.93809 4.83586 -2.19306 5.11134 5.73267 -0.0 0.0 -0.0 7.94326 -0.755755 15.4835 10.2283 -1.36126 44.6569 2.13403 -46.5851 0.918818 6.03234 0.173144 -0.75074 1.55399 2.34047 11.369 -0.0 0.0 -0.0 11.1436 17.4648 -22.1394 -17.9539 21.2083 -55.0486 0.613573 16.9066 -0.0911886 30.8149 -0.0404496 3.88911 0.643996 2.58136 -3.2356 0.0 0.0 0.0 -8.90797 15.2307 -15.0805 8.24265 -0.426026 -1.1914 16.962 14.3048 -2.36445 14.3291 -0.0 -0.0 -0.0 0.0 -0.0 32.245 40.3742 -34.7319 -16.8239 -0.31993 -2.55271 7.91527 -17.3552 1.14815 20.512 -0.0 -0.0 0.0 0.0 0.0 
951.674 758.531 -1444.38 12.2896 37.509 7.04024 -2.99803 -0.382293 -2.91217 -2.99333 -0.196291 -2.93057 -2.9772 0.574808 -2.88038 -2.98876 0.112897 -2.93496 -2.09316 4.85448 3.64763 -2.04996 5.88381 4.47313 -0.0 0.0 -0.0 8.09692 -1.01908 15.7974 10.2407 -1.77314 45.1255 2.14875 -46.7816 0.929528 6.45017 0.182195 -0.803347 1.73077 0.329001 11.7741 -0.0 0.0 -0.0 11.5892 18.6632 -23.0827 -18.3281 21.043 -54.4855 0.598577 16.5161 -0.0868764 31.4698 -0.0185926 3.9699 0.528997 2.73458 -2.39821 0.0 0.0 0.0 -8.09321 15.2664 -15.6897 8.1621 -0.421037 -1.18006 20.1333 17.7306 -2.79492 14.1517 -0.0 -0.0 -0.0 0.0 -0.0 31.7146 42.0378 -33.9461 -12.4701 -0.309354 -1.88495 12.1403 -18.6628 1.74399 21.4942 -0.0 -0.0 0.0 0.0 0.0 
945.958 753.385 -1447.58 12.1313 38.3445 6.9586 -2.95882 -0.455717 -2.90876 -2.95415 -0.269783 -2.93184 -2.93412 0.501917 -2.90115 -2.94586 0.0376425 -2.94397 -1.38707 3.64268 1.99919 -1.36758 4.95106 2.56587 -0.0 0.0 -0.0 8.12651 -1.02014 15.8573 9.45473 -1.83254 46.2896 2.10632 -46.2113 0.898747 5.78309 0.167563 -0.719389 1.77087 0.255427 12.0185 -0.0 0.0 -0.0 11.9577 19.3894 -23.879 -18.6428 21.1065 -54.1082 0.636113 17.4904 -0.0978535 31.5021 -0.0174894 3.97388 0.419236 2.74883 -1.65439 0.0 0.0 0.0 -7.63073 15.1055 -15.1594 7.20911 -0.363239 -1.04546 20.2356 20.5234 -2.83708 13.167 -0.0 -0.0 -0.0 0.0 -0.0 31.07 43.775 -33.6009 -9.53925 -0.273685 -1.43671 7.14638 -19.7181 1.04697 20.3262 -0.0 -0.0 0.0 0.0 0.0 
944.723 758.604 -1450.03 11.8847 39.1667 6.99107 -2.95959 -0.464527 -2.81061 -2.95525 -0.284813 -2.83445 -2.93528 0.462089 -2.81101 -2.94631 0.01253 -2.84868 -0.906623 1.87921 1.42943 -0.899877 2.21532 1.74213 -0.0 0.0 -0.0 8.14739 -0.578289 15.893 8.90661 -1.84016 47.0411 2.11424 -46.3187 0.904475 4.13882 0.127328 -0.513209 1.95947 -0.34822 13.0691 -0.0 0.0 -0.0 12.043 19.8649 -24.0423 -18.978 21.1026 -54.3011 0.653613 17.941 -0.103178 32.4932 0.0174112 4.09564 0.418635 3.80649 -1.20611 0.0 0.0 0.0 -7.14355 15.0217 -14.8594 6.38971 -0.315344 -0.928995 19.9974 21.8041 -2.82221 11.1989 -0.0 -0.0 -0.0 0.0 -0.0 31.2274 45.0496 -33.4793 -7.30587 -0.231138 -1.09665 -5.80167 -19.7369 -0.875784 16.9115 -0.0 -0.0 0.0 0.0 0.0 
938.766 760.357 -1456.2 11.3276 40.0567 7.38126 -2.96156 -0.426163 -2.58015 -2.9579 -0.261175 -2.60202 -2.94108 0.424696 -2.58039 -2.95037 0.0119856 -2.61506 -0.647276 2.03798 0.228563 -0.639855 3.46218 0.476699 -0.0 0.0 -0.0 8.08409 -0.872199 15.7694 8.14414 -1.69147 47.881 2.03271 -45.1931 0.846067 4.72605 0.142377 -0.586712 1.82871 0.110169 12.356 -0.0 0.0 -0.0 12.2181 20.2337 -24.4186 -19.2826 21.1691 -54.1651 0.720775 19.6492 -0.124819 31.5744 -0.0150169 3.98277 0.319319 2.87974 -0.927925 0.0 0.0 0.0 -7.04396 14.4978 -15.088 6.03518 -0.295141 -0.878397 20.1473 23.8148 -2.86964 11.9407 -0.0 -0.0 -0.0 0.0 -0.0 30.4047 45.5298 -32.9574 -6.09348 -0.202497 -0.912807 0.116613 -20.9217 0.0174756 18.7535 -0.0 -0.0 0.0 0.0 0.0 
930.605 762.488 -1464.93 10.9926 41.391 7.52595 -2.79293 -0.38312 -2.41782 -2.78971 -0.228538 -2.43729 -2.77581 0.406382 -2.41403 -2.78394 0.0201503 -2.44789 0.363193 0.852127 -0.963372 0.371281 2.30702 -0.953905 -0.0 0.0 -0.0 8.1924 0.634195 15.9598 7.37907 -1.86171 49.5724 1.99546 -44.6634 0.819757 4.29441 0.131388 -0.532669 1.90719 -0.896143 12.4896 -0.0 0.0 -0.0 12.2541 20.317 -24.4954 -18.646 21.6706 -55.1921 0.77269 20.9452 -0.14283 31.8395 -0.00584547 4.01539 0.27787 2.63517 -0.752292 0.0 0.0 0.0 -7.07011 14.0707 -15.0971 5.74549 -0.278865 -0.836962 20.098 23.6002 -2.86002 11.1162 -0.0 -0.0 -0.0 0.0 -0.0 30.2914 46.1752 -32.9962 -6.40365 -0.210195 -0.959784 -4.04183 -21.2107 -0.611546 18.2613 -0.0 -0.0 0.0 0.0 0.0 
929.748 761.676 -1469.33 11.2335 42.531 6.92769 -2.76542 -0.362956 -2.35673 -2.76235 -0.212299 -2.37504 -2.74963 0.40498 -2.34988 -2.75734 0.0288878 -2.38433 0.128483 0.772243 -0.268698 0.130815 1.59498 -0.208627 -0.0 0.0 -0.0 8.29395 0.651822 16.1627 5.93181 -1.53433 50.3899 1.99674 -44.6818 0.82066 4.35652 0.132995 -0.540441 1.91116 -0.807938 12.5524 -0.0 0.0 -0.0 12.4594 20.7667 -24.9351 -18.8736 21.8812 -54.6819 0.810212 21.8682 -0.156525 31.5472 -0.0159483 3.97943 0.328367 3.65937 -0.660596 0.0 0.0 0.0 -7.21496 12.9437 -14.9859 5.38175 -0.258727 -0.784822 20.0613 24.6108 -2.87061 11.075 -0.0 -0.0 -0.0 0.0 -0.0 30.1213 46.6598 -32.8096 -6.83787 -0.220543 -1.02562 -5.02241 -21.317 -0.761567 17.7113 -0.0 -0.0 0.0 0.0 0.0 
926.705 759.854 -1474.34 11.0791 43.1303 6.76363 -2.69004 -0.316567 -2.285 -2.68715 -0.170564 -2.3005 -2.67674 0.423296 -2.26766 -2.68392 0.059948 -2.30604 0.633744 -0.0029911 -1.1539 0.638876 0.948032 -1.25052 -0.0 0.0 -0.0 8.3905 1.09585 16.344 4.54423 -1.98397 51.6939 1.90931 -43.4004 0.759871 4.44231 0.135199 -0.551177 2.05788 -1.17157 13.4146 -0.0 0.0 -0.0 12.5296 21.4836 -25.0401 -18.812 22.2096 -54.5855 0.812192 21.9166 -0.157263 31.3112 -0.0239722 3.95035 0.36506 4.09367 -0.724497 0.0 0.0 0.0 -7.64831 11.9401 -14.7424 5.03295 -0.23973 -0.734708 20.1173 24.7201 -2.87968 10.6696 -0.0 -0.0 -0.0 0.0 -0.0 30.8468 47.2591 -33.2327 -7.91636 -0.244084 -1.18944 -5.93488 -21.2595 -0.901124 17.5062 -0.0 -0.0 0.0 0.0 0.0 
924.652 759.617 -1475.5 10.8077 43.5433 6.64638 -2.6644 -0.361225 -2.27062 -2.66155 -0.216047 -2.28899 -2.64934 0.375261 -2.26835 -2.65652 0.0124067 -2.29913 1.59004 -0.0371218 -3.54883 1.63995 2.90743 -3.8943 -0.0 0.0 -0.0 8.53464 0.492767 16.65 2.82881 -3.04359 52.7971 1.60827 -38.541 0.562311 3.30086 0.10455 -0.408592 2.30242 -1.90105 14.8104 -0.0 0.0 -0.0 12.5063 22.27 -24.9195 -17.966 22.893 -54.2782 0.865842 23.2149 -0.177852 29.8536 -0.0708577 3.77009 0.0438413 5.71071 2.12561 0.0 0.0 0.0 -7.68846 11.1294 -14.2648 4.95139 -0.235332 -0.722974 22.471 25.6042 -3.20066 8.38736 -0.0 -0.0 -0.0 0.0 -0.0 31.3586 47.713 -33.544 -8.65425 -0.258412 -1.30177 -5.39007 -23.8833 -0.82703 18.2778 -0.0 -0.0 0.0 0.0 0.0 
915.126 763.341 -1481.17 10.713 44.3751 6.7147 -2.76844 -0.351381 -2.30865 -2.7655 -0.203804 -2.32632 -2.75347 0.400823 -2.30058 -2.76085 0.0325616 -2.33499 2.63475 -0.308035 -2.33659 2.65453 1.44665 -2.61653 -0.0 0.0 -0.0 8.51748 1.36194 16.5896 1.17678 -2.08034 54.6972 1.571 -37.8883 0.539257 3.06061 0.0977369 -0.37866 2.22943 -3.99073 13.4422 -0.0 0.0 -0.0 12.7237 22.8551 -25.3691 -17.6659 22.9064 -53.5633 0.841158 22.6206 -0.16824 29.9079 -0.069192 3.77683 0.5318 6.52354 -0.821667 0.0 0.0 0.0 -7.91758 9.38864 -14.5725 3.61374 -0.165593 -0.52966 21.9222 24.461 -3.10969 7.53566 -0.0 -0.0 -0.0 0.0 -0.0 32.3783 48.0273 -34.4056 -9.95829 -0.28019 -1.50068 -5.21238 -23.4593 -0.797931 19.3983 -0.0 -0.0 0.0 0.0 0.0 
907.603 765.429 -1479.8 11.1139 44.2966 6.51232 -3.15186 -0.332572 -2.25331 -3.14905 -0.188552 -2.2699 -3.13774 0.416102 -2.2394 -3.14474 0.0573038 -2.27699 3.16396 -0.501625 -2.65481 3.18839 1.39794 -3.0006 -0.0 0.0 -0.0 8.77159 1.63135 17.088 -0.498637 -2.00137 56.4281 1.4473 -35.6365 0.465208 2.12469 0.0700004 -0.262329 2.33293 -5.73871 13.4231 -0.0 0.0 -0.0 12.7456 23.1962 -25.3876 -17.899 22.7649 -52.9317 0.832741 22.4167 -0.165017 29.1773 -0.0910503 3.68606 0.726057 7.94337 -1.53041 0.0 0.0 0.0 -8.44226 8.24753 -14.9682 2.84865 -0.127746 -0.418392 22.5137 24.3534 -3.18347 6.03353 -0.0 -0.0 -0.0 0.0 -0.0 32.3773 48.4393 -34.4505 -11.4719 -0.299782 -1.73209 -3.78775 -24.9875 -0.582725 20.7218 -0.0 -0.0 0.0 0.0 0.0 
902.339 766.317 -1479.49 10.9092 43.8334 6.1219 -3.2 -0.383247 -2.24677 -3.19722 -0.23954 -2.26659 -3.18379 0.367813 -2.24935 -3.19085 0.00805125 -2.27919 3.36796 -1.277 -2.49966 3.38453 -0.0748484 -2.88484 -0.0 0.0 -0.0 8.92001 1.85287 17.376 -1.5436 -1.60635 57.5903 1.358 -33.9274 0.414259 1.65929 0.0555009 -0.204651 2.35397 -7.09526 12.9877 -0.0 0.0 -0.0 12.7204 23.4011 -25.3095 -17.3451 22.8193 -52.0161 0.906329 24.1783 -0.194124 29.0451 -0.0948788 3.66962 0.924322 9.85034 -2.05517 0.0 0.0 0.0 -8.68751 7.32902 -13.5002 2.12769 -0.093447 -0.313097 22.9412 24.1928 -3.23495 4.94039 -0.0 -0.0 -0.0 0.0 -0.0 32.6871 48.9481 -34.7577 -12.623 -0.310585 -1.90838 -3.10864 -26.0755 -0.480427 20.9504 -0.0 -0.0 0.0 0.0 0.0 
897.686 766.642 -1482.0 10.5246 42.9521 6.95899 -3.2204 -0.31965 -2.22889 -3.21766 -0.177209 -2.2447 -3.20692 0.423082 -2.2116 -3.21374 0.068584 -2.25064 3.22937 -2.63184 -2.56334 3.24688 -2.38318 -3.04563 -0.0 0.0 -0.0 9.38267 4.19499 18.1725 -1.45052 2.0517 58.1259 1.26959 -32.1651 0.366045 1.84018 0.0611924 -0.227055 2.3807 -10.087 11.8628 -0.0 0.0 -0.0 12.6215 22.4815 -25.1667 -17.2793 23.0658 -50.954 1.02927 27.0151 -0.247256 28.1459 -0.119927 3.55749 1.14659 11.6202 -2.79298 0.0 0.0 0.0 -8.64065 6.51239 -14.0104 0.954335 -0.0404728 -0.140853 23.2255 24.0783 -3.26886 4.20881 -0.0 -0.0 -0.0 0.0 -0.0 35.3673 50.915 -37.9405 -13.5281 -0.316591 -2.04712 -4.61712 -28.2886 -0.724878 20.1615 -0.0 -0.0 0.0 0.0 0.0 
889.945 771.116 -1484.67 11.1306 44.1528 5.90158 -3.48301 -0.433621 -2.10232 -3.4806 -0.298998 -2.12563 -3.46571 0.283641 -2.12774 -3.47202 -0.0558747 -2.14582 4.18434 -2.38985 -3.76453 4.21942 -0.862334 -4.39826 -0.0 0.0 -0.0 9.44157 2.61888 18.3826 -3.06361 0.927694 59.0572 1.07882 -28.1199 0.270187 0.739146 0.0254561 -0.0909681 2.38973 -8.75285 12.5139 -0.0 0.0 -0.0 12.5898 23.1942 -25.0277 -18.2761 22.6681 -50.2039 1.16759 30.0436 -0.31334 28.0068 -0.123645 3.54011 1.24302 12.0609 -3.25241 0.0 0.0 0.0 -10.0797 5.8523 -13.2983 1.20493 -0.0514898 -0.177728 22.6619 23.3314 -3.18503 3.15453 -0.0 -0.0 -0.0 0.0 -0.0 35.5224 49.7078 -37.4947 -16.1191 -0.321661 -2.44459 -3.1846 -27.379 -0.495934 22.2341 -0.0 -0.0 0.0 0.0 0.0 
888.594 767.344 -1487.15 11.4034 44.1964 5.35192 -3.68483 -0.459513 -2.07105 -3.6825 -0.326825 -2.09608 -3.66667 0.256259 -2.10587 -3.67285 -0.0794621 -2.11991 4.21119 -3.21076 -4.40203 4.25794 -1.7232 -5.16786 -0.0 0.0 -0.0 9.94014 3.49549 19.3265 -3.43041 2.82887 59.3185 0.846893 -22.7591 0.170452 0.665986 0.0229889 -0.0819498 2.24632 -9.04392 11.3973 -0.0 0.0 -0.0 12.5541 23.5049 -24.9155 -18.7258 22.4818 -49.5043 1.34074 33.5889 -0.404668 27.9847 -0.124232 3.53734 1.34953 13.2468 -3.45267 0.0 0.0 0.0 -10.4947 4.5587 -13.3626 0.909691 -0.0385274 -0.134278 21.9099 22.6672 -3.07933 2.35898 -0.0 -0.0 -0.0 0.0 -0.0 35.3631 50.5213 -37.8438 -17.8146 -0.315249 -2.70464 -2.33678 -26.5346 -0.361537 22.547 -0.0 -0.0 0.0 0.0 0.0 
